<svg xmlns:mydata="http://www.w3.org/2000/svg" mydata:contrastcolor="ffffff" mydata:template="Default" mydata:presentation="2.5" mydata:layouttype="undefined" mydata:specialfontid="undefined" mydata:id1="780" mydata:id2="681" mydata:companyname="Collatz Conjecture" mydata:companytagline="4 -> 2 -> 1" version="1.1" xmlns="http://www.w3.org/2000/svg" xmlns:xlink="http://www.w3.org/1999/xlink" viewBox="0 0 550 470"><g fill="none" fill-rule="none" stroke="none" stroke-width="1" stroke-linecap="butt" stroke-linejoin="miter" stroke-miterlimit="10" stroke-dasharray="" stroke-dashoffset="0" font-family="none" font-weight="none" font-size="none" text-anchor="none" style="mix-blend-mode: normal"><g data-paper-data="{&quot;isGlobalGroup&quot;:true,&quot;bounds&quot;:{&quot;x&quot;:65,&quot;y&quot;:142.04047815920597,&quot;width&quot;:420,&quot;height&quot;:185.91904368158805}}"><g data-paper-data="{&quot;isSecondaryText&quot;:true}" fill="#25282a" fill-rule="nonzero"><path d="M185.30432,327.94512h3.60075v-1.51232h1.32508v-3.58635h-1.32508v-6.42374h-4.33531l-5.28591,7.60479v2.4053h6.02046zM184.48335,322.84645l0.82097,-1.18105v1.18105z" data-paper-data="{&quot;glyphName&quot;:&quot;4&quot;,&quot;glyphIndex&quot;:0,&quot;lastGlyphOfWord&quot;:true,&quot;firstGlyphOfWord&quot;:true,&quot;word&quot;:1}"></path><path d="M218.83145,324.21474h5.34352v-3.60075h-5.34352z" data-paper-data="{&quot;glyphName&quot;:&quot;-&quot;,&quot;glyphIndex&quot;:1,&quot;firstGlyphOfWord&quot;:true,&quot;word&quot;:2}"></path><path d="M237.39086,317.09965v4.06165l2.20366,1.12344l-2.20366,1.10903v4.09046l7.40315,-3.8168v-2.73657z" data-paper-data="{&quot;glyphName&quot;:&quot;>&quot;,&quot;glyphIndex&quot;:2,&quot;lastGlyphOfWord&quot;:true,&quot;word&quot;:2}"></path><path d="M283.04669,320.52757c0,-2.90941 -2.14605,-4.36411 -5.14188,-4.2921c-2.60695,0.05761 -4.70979,2.14605 -4.70979,4.39292c0,0.4609 0.10082,0.9506 0.28806,1.4259h3.31269v-1.08023c0,-0.72015 0.56172,-1.08023 1.12344,-1.08023c0.59052,0 1.19545,0.38888 1.19545,1.19545c0,2.00202 -6.04927,1.71396 -6.04927,4.60896v2.24687h9.96689v-3.60075h-3.39911c0.24485,-0.07202 3.41351,-1.06582 3.41351,-3.8168z" data-paper-data="{&quot;glyphName&quot;:&quot;2&quot;,&quot;glyphIndex&quot;:3,&quot;firstGlyphOfWord&quot;:true,&quot;lastGlyphOfWord&quot;:true,&quot;word&quot;:3}"></path><path d="M311.2201,324.21474h5.34352v-3.60075h-5.34352z" data-paper-data="{&quot;glyphName&quot;:&quot;-&quot;,&quot;glyphIndex&quot;:4,&quot;firstGlyphOfWord&quot;:true,&quot;word&quot;:4}"></path><path d="M329.7795,317.09965v4.06165l2.20366,1.12344l-2.20366,1.10903v4.09046l7.40315,-3.8168v-2.73657z" data-paper-data="{&quot;glyphName&quot;:&quot;>&quot;,&quot;glyphIndex&quot;:5,&quot;lastGlyphOfWord&quot;:true,&quot;word&quot;:4}"></path><path d="M370.71614,324.34436h-0.9506v-7.92166h-2.8806l-2.8806,2.18926l2.16045,2.8806v2.8518h-0.965v3.60075h0.965v0.0144h3.60075v-0.0144h0.9506z" data-paper-data="{&quot;glyphName&quot;:&quot;1&quot;,&quot;glyphIndex&quot;:6,&quot;firstGlyphOfWord&quot;:true,&quot;lastGlyphOfWord&quot;:true,&quot;word&quot;:5}"></path></g><g data-paper-data="{&quot;isPrimaryText&quot;:true}" fill="#000000" fill-rule="nonzero"><path d="M77.02825,305.67772c3.07572,0 5.98666,-1.09847 8.1836,-3.13064c0.16477,-0.10985 0.21969,-0.27462 0.21969,-0.43939c0,-0.16477 -0.05492,-0.27462 -0.16477,-0.38446l-3.89957,-3.89957c-0.10985,-0.05492 -0.27462,-0.10985 -0.38446,-0.10985c-0.16477,0 -0.27462,0.05492 -0.38446,0.10985c-0.9337,0.82385 -2.19694,1.26324 -3.46018,1.26324c-3.02079,0 -5.54727,-2.5814 -5.54727,-5.6022v-8.56807c0,-3.07572 2.52648,-5.6022 5.54727,-5.6022c1.26324,0 2.52648,0.43939 3.46018,1.26324c0.10985,0.10985 0.21969,0.10985 0.38446,0.10985c0.10985,0 0.27462,0 0.38446,-0.10985l3.89957,-3.89957c0.10985,-0.10985 0.16477,-0.21969 0.16477,-0.38446c0,-0.16477 -0.05492,-0.32954 -0.21969,-0.43939c-2.19694,-2.03217 -5.10789,-3.13064 -8.1836,-3.13064c-6.64574,0.05492 -12.02825,5.54727 -12.02825,12.19302v8.51314c0,6.70067 5.3825,12.19302 12.02825,12.24794z" data-paper-data="{&quot;glyphName&quot;:&quot;C&quot;,&quot;glyphIndex&quot;:0,&quot;firstGlyphOfWord&quot;:true,&quot;word&quot;:1}"></path><path d="M98.06395,305.67772c6.70067,0 12.08317,-5.43743 12.08317,-12.08317v-8.78776c0,-6.64574 -5.3825,-12.08317 -12.08317,-12.08317c-6.64574,0 -12.08317,5.43743 -12.08317,12.08317v8.78776c0,6.64574 5.43743,12.08317 12.08317,12.08317zM92.5716,284.80679c0,-3.02079 2.47156,-5.49235 5.49235,-5.49235c3.07572,0 5.49235,2.47156 5.49235,5.49235v8.78776c0,3.02079 -2.41663,5.49235 -5.49235,5.49235c-3.02079,0 -5.49235,-2.47156 -5.49235,-5.49235z" data-paper-data="{&quot;glyphName&quot;:&quot;O&quot;,&quot;glyphIndex&quot;:1,&quot;word&quot;:1}"></path><path d="M133.76422,305.12849v-5.49235c0,-0.27462 -0.21969,-0.54923 -0.54923,-0.54923h-12.6324v-25.81404c0,-0.27462 -0.21969,-0.54923 -0.54923,-0.54923h-5.49235c-0.27462,0 -0.54923,0.27462 -0.54923,0.54923v31.85563c0,0.32954 0.27462,0.54923 0.54923,0.54923h18.67399c0.32954,0 0.54923,-0.21969 0.54923,-0.54923z" data-paper-data="{&quot;glyphName&quot;:&quot;L&quot;,&quot;glyphIndex&quot;:2,&quot;word&quot;:1}"></path><path d="M156.83209,305.12849v-5.49235c0,-0.27462 -0.21969,-0.54923 -0.54923,-0.54923h-12.6324v-25.81404c0,-0.27462 -0.21969,-0.54923 -0.54923,-0.54923h-5.49235c-0.27462,0 -0.54923,0.27462 -0.54923,0.54923v31.85563c0,0.32954 0.27462,0.54923 0.54923,0.54923h18.67399c0.32954,0 0.54923,-0.21969 0.54923,-0.54923z" data-paper-data="{&quot;glyphName&quot;:&quot;L&quot;,&quot;glyphIndex&quot;:3,&quot;word&quot;:1}"></path><path d="M168.69557,301.28384h8.62299v3.84464c0,0.32954 0.27462,0.54923 0.54923,0.54923h5.49235c0.32954,0 0.54923,-0.21969 0.54923,-0.54923v-31.85563c0,-0.32954 -0.21969,-0.54923 -0.54923,-0.54923h-6.48097c-0.38446,0 -0.76893,0.21969 -0.9337,0.60416l-16.86151,31.52609c-0.05492,0.10985 -0.05492,0.16477 -0.05492,0.27462c0,0.27462 0.21969,0.54923 0.54923,0.54923h6.09651c0.43939,0 0.82385,-0.21969 0.98862,-0.60416zM177.31856,285.08141v9.61161h-5.10789z" data-paper-data="{&quot;glyphName&quot;:&quot;A&quot;,&quot;glyphIndex&quot;:4,&quot;word&quot;:1}"></path><path d="M194.39976,305.67772h5.43743c0.32954,0 0.54923,-0.27462 0.54923,-0.54923v-25.81404h6.04158c0.32954,0 0.54923,-0.27462 0.54923,-0.54923v-5.49235c0,-0.27462 -0.21969,-0.54923 -0.54923,-0.54923h-18.67399c-0.27462,0 -0.54923,0.27462 -0.54923,0.54923v5.49235c0,0.27462 0.27462,0.54923 0.54923,0.54923h6.04158v25.81404c0,0.27462 0.27462,0.54923 0.60416,0.54923z" data-paper-data="{&quot;glyphName&quot;:&quot;T&quot;,&quot;glyphIndex&quot;:5,&quot;word&quot;:1}"></path><path d="M232.95606,305.12849v-5.49235c0,-0.32954 -0.21969,-0.54923 -0.54923,-0.54923h-11.53393l12.79718,-25.53943c0.05492,-0.10985 0.05492,-0.16477 0.05492,-0.27462c0,-0.27462 -0.21969,-0.54923 -0.54923,-0.54923h-21.63986c-0.27462,0 -0.49431,0.21969 -0.49431,0.54923v5.49235c0,0.32954 0.21969,0.54923 0.49431,0.54923h11.53393l-12.74225,25.53943c-0.05492,0.10985 -0.05492,0.16477 -0.05492,0.27462c0,0.27462 0.21969,0.54923 0.49431,0.54923h21.63986c0.32954,0 0.54923,-0.21969 0.54923,-0.54923z" data-paper-data="{&quot;glyphName&quot;:&quot;Z&quot;,&quot;glyphIndex&quot;:6,&quot;lastGlyphOfWord&quot;:true,&quot;word&quot;:1}"></path><path d="M263.32876,305.67772c3.07572,0 5.98666,-1.09847 8.1836,-3.13064c0.16477,-0.10985 0.21969,-0.27462 0.21969,-0.43939c0,-0.16477 -0.05492,-0.27462 -0.16477,-0.38446l-3.89957,-3.89957c-0.10985,-0.05492 -0.27462,-0.10985 -0.38446,-0.10985c-0.16477,0 -0.27462,0.05492 -0.38446,0.10985c-0.9337,0.82385 -2.19694,1.26324 -3.46018,1.26324c-3.02079,0 -5.54727,-2.5814 -5.54727,-5.6022v-8.56807c0,-3.07572 2.52648,-5.6022 5.54727,-5.6022c1.26324,0 2.52648,0.43939 3.46018,1.26324c0.10985,0.10985 0.21969,0.10985 0.38446,0.10985c0.10985,0 0.27462,0 0.38446,-0.10985l3.89957,-3.89957c0.10985,-0.10985 0.16477,-0.21969 0.16477,-0.38446c0,-0.16477 -0.05492,-0.32954 -0.21969,-0.43939c-2.19694,-2.03217 -5.10789,-3.13064 -8.1836,-3.13064c-6.64574,0.05492 -12.02825,5.54727 -12.02825,12.19302v8.51314c0,6.70067 5.3825,12.19302 12.02825,12.24794z" data-paper-data="{&quot;glyphName&quot;:&quot;C&quot;,&quot;glyphIndex&quot;:7,&quot;firstGlyphOfWord&quot;:true,&quot;word&quot;:2}"></path><path d="M284.36446,305.67772c6.70067,0 12.08317,-5.43743 12.08317,-12.08317v-8.78776c0,-6.64574 -5.3825,-12.08317 -12.08317,-12.08317c-6.64574,0 -12.08317,5.43743 -12.08317,12.08317v8.78776c0,6.64574 5.43743,12.08317 12.08317,12.08317zM278.87211,284.80679c0,-3.02079 2.47156,-5.49235 5.49235,-5.49235c3.07572,0 5.49235,2.47156 5.49235,5.49235v8.78776c0,3.02079 -2.41663,5.49235 -5.49235,5.49235c-3.02079,0 -5.49235,-2.47156 -5.49235,-5.49235z" data-paper-data="{&quot;glyphName&quot;:&quot;O&quot;,&quot;glyphIndex&quot;:8,&quot;word&quot;:2}"></path><path d="M306.88309,285.90526l9.61161,19.1683c0.16477,0.38446 0.54923,0.60416 0.98862,0.60416h6.42605c0.32954,0 0.54923,-0.27462 0.54923,-0.54923v-31.85563c0,-0.27462 -0.21969,-0.54923 -0.54923,-0.54923h-5.49235c-0.27462,0 -0.54923,0.27462 -0.54923,0.54923v19.22322l-9.55669,-19.1683c-0.16477,-0.38446 -0.54923,-0.60416 -0.98862,-0.60416h-6.48097c-0.27462,0 -0.54923,0.27462 -0.54923,0.54923v31.85563c0,0.27462 0.27462,0.54923 0.54923,0.54923h5.49235c0.32954,0 0.54923,-0.27462 0.54923,-0.54923z" data-paper-data="{&quot;glyphName&quot;:&quot;N&quot;,&quot;glyphIndex&quot;:9,&quot;word&quot;:2}"></path><path d="M348.13064,293.4847v-20.21185c0,-0.32954 -0.21969,-0.54923 -0.54923,-0.54923h-5.49235c-0.27462,0 -0.49431,0.21969 -0.49431,0.54923v20.21185c0,3.02079 -2.52648,5.6022 -5.54727,5.6022c-1.31816,0 -2.52648,-0.43939 -3.5151,-1.26324c-0.10985,-0.10985 -0.21969,-0.16477 -0.32954,-0.16477c-0.16477,0 -0.27462,0.10985 -0.38446,0.21969l-3.89957,3.84464c-0.10985,0.10985 -0.16477,0.27462 -0.16477,0.43939c0,0.16477 0.05492,0.27462 0.16477,0.38446c2.25186,2.03217 5.16281,3.13064 8.23852,3.13064c6.64574,-0.05492 11.97332,-5.54727 11.97332,-12.19302z" data-paper-data="{&quot;glyphName&quot;:&quot;J&quot;,&quot;glyphIndex&quot;:10,&quot;word&quot;:2}"></path><path d="M372.29698,305.12849v-5.49235c0,-0.32954 -0.21969,-0.54923 -0.54923,-0.54923h-12.6324v-6.59082h8.23852c0.32954,0 0.54923,-0.27462 0.54923,-0.54923v-5.49235c0,-0.27462 -0.21969,-0.54923 -0.54923,-0.54923h-8.23852v-6.59082h12.6324c0.32954,0 0.54923,-0.21969 0.54923,-0.54923v-5.49235c0,-0.32954 -0.21969,-0.54923 -0.54923,-0.54923h-18.67399c-0.27462,0 -0.54923,0.21969 -0.54923,0.54923v31.85563c0,0.32954 0.27462,0.54923 0.54923,0.54923h18.67399c0.32954,0 0.54923,-0.21969 0.54923,-0.54923z" data-paper-data="{&quot;glyphName&quot;:&quot;E&quot;,&quot;glyphIndex&quot;:11,&quot;word&quot;:2}"></path><path d="M386.52217,305.67772c3.07572,0 5.98666,-1.09847 8.1836,-3.13064c0.16477,-0.10985 0.21969,-0.27462 0.21969,-0.43939c0,-0.16477 -0.05492,-0.27462 -0.16477,-0.38446l-3.89957,-3.89957c-0.10985,-0.05492 -0.27462,-0.10985 -0.38446,-0.10985c-0.16477,0 -0.27462,0.05492 -0.38446,0.10985c-0.9337,0.82385 -2.19694,1.26324 -3.46018,1.26324c-3.02079,0 -5.54727,-2.5814 -5.54727,-5.6022v-8.56807c0,-3.07572 2.52648,-5.6022 5.54727,-5.6022c1.26324,0 2.52648,0.43939 3.46018,1.26324c0.10985,0.10985 0.21969,0.10985 0.38446,0.10985c0.10985,0 0.27462,0 0.38446,-0.10985l3.89957,-3.89957c0.10985,-0.10985 0.16477,-0.21969 0.16477,-0.38446c0,-0.16477 -0.05492,-0.32954 -0.21969,-0.43939c-2.19694,-2.03217 -5.10789,-3.13064 -8.1836,-3.13064c-6.64574,0.05492 -12.02825,5.54727 -12.02825,12.19302v8.51314c0,6.70067 5.3825,12.19302 12.02825,12.24794z" data-paper-data="{&quot;glyphName&quot;:&quot;C&quot;,&quot;glyphIndex&quot;:12,&quot;word&quot;:2}"></path><path d="M404.86661,305.67772h5.43743c0.32954,0 0.54923,-0.27462 0.54923,-0.54923v-25.81404h6.04158c0.32954,0 0.54923,-0.27462 0.54923,-0.54923v-5.49235c0,-0.27462 -0.21969,-0.54923 -0.54923,-0.54923h-18.67399c-0.27462,0 -0.54923,0.27462 -0.54923,0.54923v5.49235c0,0.27462 0.27462,0.54923 0.54923,0.54923h6.04158v25.81404c0,0.27462 0.27462,0.54923 0.60416,0.54923z" data-paper-data="{&quot;glyphName&quot;:&quot;T&quot;,&quot;glyphIndex&quot;:13,&quot;word&quot;:2}"></path><path d="M432.82268,305.67772c6.75559,0 12.08317,-5.54727 12.08317,-12.19302v-3.18556l7.41467,14.77442c0.16477,0.38446 0.54923,0.60416 0.98862,0.60416h6.09651c0.32954,0 0.54923,-0.21969 0.54923,-0.49431c0,-0.10985 0,-0.21969 -0.05492,-0.27462l-5.49235,-10.9847c4.06434,-1.59278 6.97528,-5.6022 6.97528,-10.21577c0,-6.15143 -5.05296,-10.9847 -11.09455,-10.9847h-11.42409c-0.27462,0 -0.54923,0.27462 -0.54923,0.54923v20.21185c0,3.02079 -2.36171,5.6022 -5.3825,5.6022c-3.13064,0 -5.6022,-2.47156 -5.6022,-5.49235v-20.32169c0,-0.27462 -0.21969,-0.54923 -0.54923,-0.54923h-5.49235c-0.27462,0 -0.54923,0.27462 -0.54923,0.54923v20.32169c0,6.64574 5.43743,12.08317 12.08317,12.08317zM454.79208,283.70832c0,2.08709 -1.42801,3.78972 -3.35033,4.28403l-4.33896,-8.67791h3.29541c2.41663,0 4.39388,1.97725 4.39388,4.39388z" data-paper-data="{&quot;glyphName&quot;:&quot;&quot;,&quot;glyphIndex&quot;:14,&quot;word&quot;:2}"></path><path d="M485,305.12849v-5.49235c0,-0.32954 -0.21969,-0.54923 -0.54923,-0.54923h-12.6324v-6.59082h8.23852c0.32954,0 0.54923,-0.27462 0.54923,-0.54923v-5.49235c0,-0.27462 -0.21969,-0.54923 -0.54923,-0.54923h-8.23852v-6.59082h12.6324c0.32954,0 0.54923,-0.21969 0.54923,-0.54923v-5.49235c0,-0.32954 -0.21969,-0.54923 -0.54923,-0.54923h-18.67399c-0.27462,0 -0.54923,0.21969 -0.54923,0.54923v31.85563c0,0.32954 0.27462,0.54923 0.54923,0.54923h18.67399c0.32954,0 0.54923,-0.21969 0.54923,-0.54923z" data-paper-data="{&quot;glyphName&quot;:&quot;E&quot;,&quot;glyphIndex&quot;:15,&quot;lastGlyphOfWord&quot;:true,&quot;word&quot;:2}"></path></g><g data-paper-data="{&quot;fillRule&quot;:&quot;evenodd&quot;,&quot;isIcon&quot;:&quot;true&quot;,&quot;iconType&quot;:&quot;icon&quot;,&quot;rawIconId&quot;:&quot;3644630&quot;,&quot;selectedEffects&quot;:{&quot;container&quot;:&quot;&quot;,&quot;transformation&quot;:&quot;&quot;,&quot;pattern&quot;:&quot;&quot;},&quot;bounds&quot;:{&quot;x&quot;:186.0454572744962,&quot;y&quot;:142.04047815920597,&quot;width&quot;:177.90908545100757,&quot;height&quot;:109.33918793739426},&quot;iconStyle&quot;:&quot;standalone&quot;,&quot;suitableAsStandaloneIcon&quot;:true}" fill-rule="evenodd"><g data-paper-data="{&quot;isPathIcon&quot;:true}"><path d="M280.18797,167.6191l8.87895,5.12697l-19.6299,11.33294c-0.233,0.135 -0.374,0.38 -0.374,0.649v22.66688l-19.6319,-11.33394c-0.231,-0.133 -0.516,-0.133 -0.749,0l-31.13084,17.97391c-0.231,0.135 -0.374,0.38 -0.374,0.649v11.98194c0,0.268 0.143,0.514 0.374,0.649l10.37895,5.99097c0.112,0.065 0.237,0.098 0.363,0.1c0.131,0.002 0.264,-0.03 0.386,-0.1l20.3779,-11.76594l30.75684,17.75691c0.233,0.134 0.518,0.134 0.749,0l41.50679,-23.96388c0.233,-0.136 0.375,-0.381 0.375,-0.649v-11.98294c0,-0.017 -0.001,-0.033 -0.002,-0.05c-0.016,-0.248 -0.154,-0.472 -0.373,-0.599l-10.37595,-5.99097c-0.231,-0.133 -0.518,-0.133 -0.749,0l-19.6309,11.33394v-10.25195l30.75584,-17.75691c0.233,-0.136 0.375,-0.381 0.375,-0.65v-11.98194c0,-0.268 -0.142,-0.514 -0.375,-0.649l-41.50679,-23.96488c-0.231,-0.133 -0.516,-0.133 -0.749,0l-41.50779,23.96488c-0.231,0.135 -0.374,0.381 -0.374,0.649v11.98194c0,0.269 0.143,0.514 0.374,0.65l10.37595,5.99097v0c0.204,0.116 0.448,0.131 0.661,0.043c0.03,-0.012 0.059,-0.027 0.088,-0.043zM320.19777,166.7541l-40.00979,-23.09888l-40.00879,23.09888l6.65797,3.84398l2.21999,1.28199l30.75684,-17.75691c0.233,-0.133 0.518,-0.133 0.749,0l20.75489,11.98194c0.23,0.135 0.374,0.381 0.374,0.649c0,0.268 -0.144,0.514 -0.374,0.649l-30.00785,17.32391l6.64597,3.83798l2.23199,1.28799l10.71994,-6.18897zM249.80613,183.43002l29.63285,-17.10891v-10.25095l-19.7669,11.41194l-9.86595,5.69597zM280.93697,166.3211l9.62795,5.55897l8.87995,-5.12597l-18.5079,-10.68395zM239.42918,178.30404l8.87895,5.12597v-10.25195l-2.21999,-1.28099l-6.65897,-3.84498zM290.61892,185.562l-9.68195,5.58997v46.19776l40.00979,-23.09888v-10.25195l-30.00785,17.32491c-0.231,0.133 -0.516,0.133 -0.749,0c-0.231,-0.135 -0.374,-0.381 -0.374,-0.649v-23.96488c0,-0.268 0.143,-0.514 0.374,-0.649l30.75684,-17.75691v-10.25195zM279.43898,191.15198l-2.18099,-1.25999l-6.69697,-3.86598v34.64882c0,0.127 -0.032,0.256 -0.1,0.374c-0.051,0.087 -0.116,0.161 -0.192,0.219c-0.026,0.02 -0.054,0.039 -0.083,0.056c-0.1,0.057 -0.21,0.09 -0.321,0.098c-0.018,0.001 -0.036,0.002 -0.054,0.002c-0.078,0 -0.155,-0.012 -0.23,-0.036c-0.05,-0.017 -0.098,-0.038 -0.144,-0.064l-19.6309,-11.33294v10.25095l29.63285,17.10791zM249.34313,207.99989c-0.213,-0.088 -0.457,-0.073 -0.661,0.043l-20.3779,11.76694l-8.88095,-5.12597l29.63385,-17.10891l20.0059,11.54994v10.25195l-19.3299,-11.15994l-0.302,-0.174c-0.029,-0.016 -0.058,-0.031 -0.088,-0.043zM291.31392,219.37683l0.265,-0.154l28.61885,-16.52192l-8.87895,-5.12597l-20.0049,11.54994zM229.05324,231.35977l19.2549,-11.11794v-10.25195l-19.2549,11.11794zM227.55524,231.35877l-8.87995,-5.12597v-10.25095l8.87995,5.12497z" fill="#000000"></path><path d="M352.4526,172.09607c0.233,-0.133 0.518,-0.133 0.749,0l10.37795,5.99097c0.231,0.136 0.375,0.381 0.375,0.65v11.98194c0,0.268 -0.144,0.514 -0.375,0.649l-20.75489,11.98194c-0.014,0.009 -0.029,0.017 -0.044,0.024c-0.104,0.051 -0.217,0.076 -0.33,0.076c-0.122,0 -0.243,-0.029 -0.353,-0.088c-0.007,-0.004 -0.014,-0.008 -0.022,-0.012l-10.37595,-5.99097c-0.233,-0.135 -0.375,-0.381 -0.375,-0.649v-11.98194c0,-0.269 0.142,-0.514 0.375,-0.649zM361.70655,178.73604l-8.87995,-5.12497l-19.2539,11.11694l8.87795,5.12497zM217.5513,178.08704c0.233,-0.133 0.518,-0.133 0.749,0l10.37895,5.99197c0.23,0.135 0.374,0.38 0.374,0.649v11.98194c0,0.268 -0.144,0.514 -0.374,0.649l-10.37895,5.99097c-0.043,0.025 -0.088,0.045 -0.135,0.061c-0.077,0.026 -0.158,0.039 -0.239,0.039h-0.005c-0.081,0 -0.162,-0.014 -0.239,-0.041c-0.045,-0.015 -0.089,-0.035 -0.131,-0.059l-10.37595,-5.99097c-0.231,-0.135 -0.375,-0.381 -0.375,-0.649v-11.98194c0,-0.269 0.144,-0.514 0.375,-0.649zM226.80525,184.72801l-8.87895,-5.12597l-8.87795,5.12597l8.87795,5.12497zM343.19965,201.40392l19.2569,-11.11794v-10.25195l-19.2569,11.11794zM218.67529,201.40392l8.87995,-5.12697v-10.25195l-8.87995,5.12697zM208.29834,186.025l8.87895,5.12697v10.25095l-8.87895,-5.12597zM332.8227,186.025l8.87895,5.12697v10.25195l-8.87895,-5.12697zM196.7984,226.0168c0.231,-0.133 0.516,-0.133 0.749,0l10.37695,5.99097c0.028,0.017 0.054,0.034 0.08,0.054c0.076,0.058 0.143,0.132 0.194,0.221c0.068,0.118 0.1,0.247 0.1,0.374v11.98294c0,0.268 -0.143,0.513 -0.374,0.649l-10.37695,5.99097c-0.043,0.025 -0.089,0.045 -0.136,0.061c-0.025,0.008 -0.051,0.015 -0.076,0.021c-0.022,0.005 -0.044,0.008 -0.066,0.011c-0.032,0.005 -0.064,0.007 -0.096,0.007h-0.001c-0.122,0 -0.244,-0.03 -0.354,-0.089c-0.007,-0.004 -0.013,-0.007 -0.02,-0.011l-10.37795,-5.99097c-0.231,-0.136 -0.375,-0.381 -0.375,-0.649v-11.98294c0,-0.268 0.144,-0.514 0.375,-0.649zM206.05135,232.65676l-8.87795,-5.12597l-8.87995,5.12597l8.87995,5.12597zM187.54345,233.95476l8.88095,5.12597v10.25195l-8.88095,-5.12597zM197.9224,249.33268l8.87795,-5.12597v-10.25195l-8.87795,5.12597z" fill="#25282a"></path></g></g></g></g></svg>
